<?xml version="1.0" encoding="UTF-8"?>
<svg id="Capa_2" data-name="Capa 2" xmlns="http://www.w3.org/2000/svg" version="1.1" viewBox="0 0 135 135">
  <defs>
    <style>
      .cls-1 {
        fill: #4f1f12;
        stroke-width: 0px;
      }
    </style>
  </defs>
  <path class="cls-1" d="M101.4,31.3H33.6c-4.9,0-8.8,3.9-8.8,8.8v54.8c0,4.9,3.9,8.8,8.8,8.8h67.8c4.9,0,8.8-3.9,8.8-8.8v-54.8c0-4.9-4-8.8-8.8-8.8ZM96.3,39.3l-28.7,28.7-27.2-28.7h56ZM102.2,94.9c0,.4-.4.8-.8.8H33.6c-.4,0-.8-.4-.8-.8v-51.9l29.2,30.8c1.4,1.5,3.4,2.4,5.5,2.4h.1c2.1,0,4-.8,5.4-2.3l29.2-29.2v50.2Z"/>
</svg>